<?xml version="1.0" encoding="utf-8"?>
<!-- Generator: Adobe Illustrator 24.0.0, SVG Export Plug-In . SVG Version: 6.00 Build 0)  -->
<svg version="1.1" id="cytiva_logo" xmlns="http://www.w3.org/2000/svg" xmlns:xlink="http://www.w3.org/1999/xlink" x="0px"
	 y="0px" viewBox="0 0 359.81 151.58" style="enable-background:new 0 0 359.81 151.58;" xml:space="preserve">
<style type="text/css">
	.st0{fill:#18181B;}
	.st1{fill:#008B6F;}
</style>
<g>
	<g>
		<path class="st0" d="M154.4,86.33c-2.31,0-3.97-0.99-4.95-2.93c-0.97-1.93-1.46-4.52-1.46-7.71c0-3.19,0.51-5.77,1.52-7.68
			c1.02-1.92,2.68-2.9,4.93-2.9c1.46,0,2.6,0.42,3.37,1.26c0.76,0.82,1.3,1.95,1.62,3.38l10.23-0.05c-0.51-5.95-4.34-9.32-5.5-10.22
			c-2.46-1.89-5.75-2.85-9.76-2.85c-5.3,0-9.52,1.75-12.54,5.2c-3.03,3.45-4.56,8.2-4.56,14.12c0,5.84,1.47,10.49,4.38,13.82
			c2.9,3.33,7.11,5.01,12.51,5.01c4.4,0,7.94-1.12,10.51-3.33c2.56-2.2,4.19-5.27,4.96-9.39h-10c-0.37,1.31-0.97,2.35-1.77,3.11
			C157.06,85.94,155.88,86.33,154.4,86.33z"/>
		<path class="st0" d="M232.1,92.81l-1.41-7.68c-0.81,0.23-1.65,0.42-2.52,0.56c-0.9,0.15-1.89,0.22-2.94,0.22
			c-2.96,0-4.46-1.61-4.46-4.79v-15.1h10.45v-8.19h-10.45v-8.64h-10.51v31.63c0,2.7,0.33,5.1,0.97,7.13
			c0.64,2.02,1.84,3.62,3.57,4.76c1.73,1.14,4.25,1.72,7.48,1.72c1.95,0,3.71-0.14,5.23-0.42C229.03,93.74,230.57,93.33,232.1,92.81
			z"/>
		<path class="st0" d="M236.98,64.71v29.03h10.58v-35.9h-3.71C240.07,57.83,236.98,60.92,236.98,64.71z"/>
		<polygon class="st0" points="277.61,57.83 270.08,83.81 262.73,57.83 251.39,57.83 264.29,93.74 275.62,93.74 288.55,57.83 		"/>
		<path class="st0" d="M181.12,57.77H170.1l14.27,32.58l-0.01,0.03c-0.01,0.02-0.61,1.97-0.9,2.86c-0.26,0.8-0.41,0.94-0.93,1.39
			c-0.08,0.07-0.16,0.14-0.26,0.23c-0.74,0.67-1.79,1.01-3.11,1.01c-0.55,0-1.14-0.04-1.73-0.13c-0.58-0.08-1.31-0.24-2.18-0.46
			l-1.61,7.5c2.16,0.79,4.59,1.19,7.24,1.19c2.29,0,4.17-0.44,5.59-1.29c1.43-0.86,2.67-2.17,3.69-3.89
			c1.91-3.2,15.62-38.73,16.5-41.01h-10.63l-7.07,22.15L181.12,57.77z"/>
		<path class="st0" d="M313.32,61.18l-0.15-0.21c-1.38-1.94-2.85-2.76-4.23-3.36c-1.43-0.62-2.7-0.89-4.35-0.89
			c-0.25,0-0.5,0.01-0.77,0.02c-4.3,0.41-7.8,2.12-10.4,5.09c-3.03,3.45-4.56,8.2-4.56,14.12c0,5.84,1.47,10.49,4.38,13.82
			c1.4,1.61,3.12,2.84,5.1,3.67c1.83,0.77,3.33,1.12,4.71,1.12c1.01,0,2.45-0.17,2.47-0.17c1.2-0.2,2.39-0.6,3.44-1.13
			c1.63-0.83,3.04-2.04,4.21-3.58l0.15-0.2v4.26h10.58v-35.9h-10.58V61.18z M313.94,76.6c0,1.6-0.17,3.06-0.5,4.34
			c-0.33,1.28-0.95,2.45-1.84,3.47c-0.61,0.71-1.32,1.25-2.11,1.62c-0.79,0.37-1.76,0.56-2.88,0.56c-1.99,0-3.69-0.83-5.06-2.47
			c-1.37-1.64-2.07-4.39-2.07-8.19c0-3.68,0.68-6.42,2.03-8.14c1.35-1.73,3.13-2.6,5.29-2.6c1.93,0,3.52,0.68,4.72,2.01
			c0.74,0.82,1.33,1.91,1.76,3.25c0.43,1.34,0.65,3.03,0.65,5.02V76.6z"/>
		<path class="st0" d="M242.3,42.77c-3.35,0-6.07,2.73-6.07,6.07s2.73,6.07,6.07,6.07s6.07-2.72,6.07-6.07S245.65,42.77,242.3,42.77
			z"/>
	</g>
	<path class="st1" d="M35.9,75.57c0,22.15,17.96,40.11,40.11,40.11s40.11-17.96,40.11-40.11c0-20.1-14.79-36.75-34.08-39.66
		c0,0-0.01,52.69-0.02,52.89c0,8.33-6.28,16.19-14.62,16.19s-15.2-6.12-15.2-13.62c0-4.17,1.41-7.92,4.34-10.86
		c3.95-3.95,11.85-7.9,16.1-13.47c2.7-3.54,3.44-5.87,3.44-9.63c0-8.33-6.55-15.3-14.89-15.3c-3.13,0-6.67,1.03-9.2,2.47
		c-4.31,2.46-7.82,5.92-10.58,10.66C37.72,61.62,35.9,68.44,35.9,75.57z"/>
</g>
</svg>
