<?xml version="1.0" encoding="utf-8"?>
<!-- Generator: Adobe Illustrator 23.0.4, SVG Export Plug-In . SVG Version: 6.00 Build 0)  -->
<svg version="1.1" id="Layer_1" xmlns="http://www.w3.org/2000/svg" xmlns:xlink="http://www.w3.org/1999/xlink" x="0px" y="0px"
	 viewBox="0 0 170 82.5" style="enable-background:new 0 0 170 82.5;" xml:space="preserve">
<style type="text/css">
	.st0{fill-rule:evenodd;clip-rule:evenodd;fill:#FFFFFF;}
</style>
<g>
	<path class="st0" d="M70,11.1c-1.3-1.1-3.3-1.7-5.3-1.8c-4.8,0-8.7,3.8-8.7,8.6c0,4.7,3.9,8.5,8.7,8.6c2.7,0,5-1.1,6.6-3
		c0-4.7,0-4.7,0-4.7c-0.9,1.5-2.6,3.4-4.1,4c-0.8,0.3-1.6,0.5-2.5,0.5c-3,0-5.4-2.3-5.4-5.4c0-2.8,2.3-5.4,5.4-5.4
		c1.5,0,2.8,0.6,3.8,1.6s2.6,3.1,3.4,3.9c2,2.1,4.8,3.4,7.8,3.4c5.9,0,10.7-4.8,10.7-10.6C90.5,4.9,85.7,0,79.8,0
		c-3.4,0-6.5,1.8-8.4,4.3c0,6.4,0,6.4,0,6.4c1.5-4.1,4.2-7.3,8.4-7.3c4.1,0,7.4,3.4,7.4,7.4c0,4.1-3.3,7.3-7.4,7.3
		c-1.8,0-3.5-0.7-4.8-1.7C73.4,15.1,71.7,12.5,70,11.1"/>
	<path class="st0" d="M0,28.5c23.5,0,23.5,0,23.5,0c0,6.6,0,6.6,0,6.6s-1.2-2.6-3.7-2.6c-10.9,0-10.9,0-10.9,0c0,11.3,0,11.3,0,11.3
		c11.8,0,11.8,0,11.8,0c0,6,0,6,0,6s-0.4-1.9-3.2-1.9c-8.6,0-8.6,0-8.6,0c0,15.5,0,15.5,0,15.5c0,2.3,2.5,3.6,2.5,3.6
		C0.2,67,0.2,67,0.2,67s2.3-1.2,2.3-3.6c0-30.8,0-30.8,0-30.8C2.5,29.9,0,28.5,0,28.5z"/>
	<path class="st0" d="M59.6,28.5c11.9,0,11.9,0,11.9,0s-2.7,1.3-2.7,3.4c0,36.3,0,36.3,0,36.3c0,12.3-12.2,14.3-12.8,14.3
		c1-0.7,6.1-5,6.1-14.3c0-36.3,0-36.3,0-36.3C62.1,29.9,59.6,28.5,59.6,28.5z"/>
	<path class="st0" d="M73,28.5c12,0,12,0,12,0s-2.6,1.3-2.6,3.4c0,31.4,0,31.4,0,31.4c0,2.3,2.6,3.7,2.6,3.7c-12,0-12,0-12,0
		s2.7-1.4,2.7-3.7c0-31.4,0-31.4,0-31.4C75.7,29.8,73,28.5,73,28.5z"/>
	<path class="st0" d="M87.4,28.5c26.6,0,26.6,0,26.6,0c-2.3,7-2.3,7-2.3,7s-0.7-3-3.2-3c-5.5,0-5.5,0-5.5,0c0,30.8,0,30.8,0,30.8
		c0,1.9,2.6,3.6,2.6,3.6c-11.9,0-11.9,0-11.9,0s2.6-1.5,2.6-3.6c0-30.8,0-30.8,0-30.8c-6.7,0-6.7,0-6.7,0C87.7,32.5,85,36,85,36
		L87.4,28.5z"/>
	<path class="st0" d="M158.5,28.5c11.5,0,11.5,0,11.5,0s-2.5,1.3-2.5,3.4c0,23.5,0,23.5,0,23.5c0,9.6-7.8,12.5-13.2,12.5
		s-13.8-3-13.8-12.5c0-23.5,0-23.5,0-23.5c0-2.1-2.5-3.4-2.5-3.4c11.8,0,11.8,0,11.8,0s-2.6,1.3-2.6,3.4c0,23.5,0,23.5,0,23.5
		c0,5,3.3,8.3,7.1,8.3s6.8-3.4,6.8-8.3c0-23.5,0-23.5,0-23.5C161.1,29.8,158.5,28.5,158.5,28.5z"/>
	<path class="st0" d="M45.2,28.5c11.8,0,11.8,0,11.8,0s-2.5,1.4-2.5,3.5v23.4C54.5,65,46.3,68,40.8,68c-5.4,0-13.9-3.1-13.9-12.6
		c0-23.4,0-23.4,0-23.4c0-2.1-2.4-3.5-2.4-3.5c11.9,0,11.9,0,11.9,0s-2.8,1.4-2.8,3.5c0,23.4,0,23.4,0,23.4c0,5,3.3,8.4,7.1,8.4
		c3.9,0,7-3.5,7-8.4c0-23.4,0-23.4,0-23.4C47.8,29.9,45.2,28.5,45.2,28.5z"/>
	<path class="st0" d="M134.1,35c0,0-1.7-2.9-6.4-3c-4.8,0-7.4,2.5-7.4,5.8c0,3.7,2.8,5.1,7,7.2c4.1,2,10.2,4.7,10.2,11.6
		c0,6.2-5.4,11.3-15.1,11.3c-3,0-7.1-1-7.1-1c-2.2-7.4-2.2-7.4-2.2-7.4c2.1,2,5.7,4.2,9.4,4.2c3.9,0,8.5-2.4,8.5-6.3
		c0-7.5-17.3-6.3-17.3-18.9c0-4.3,3-10.6,13.3-10.6c3.4,0,7.1,1,7.1,1V35z"/>
</g>
</svg>
