<?xml version="1.0" encoding="utf-8"?>
<!-- Generator: Adobe Illustrator 22.1.0, SVG Export Plug-In . SVG Version: 6.00 Build 0)  -->
<svg version="1.1" id="Layer_1" xmlns="http://www.w3.org/2000/svg" xmlns:xlink="http://www.w3.org/1999/xlink" x="0px" y="0px"
	 viewBox="0 0 200 48" style="enable-background:new 0 0 200 48;" xml:space="preserve">
<style type="text/css">
	.st0{fill:#821F81;}
</style>
<path class="st0" d="M96.2,11.6c0.9-2.1,0.7-4.2-0.6-6c-1.1-1.6-2.8-2.2-4.7-2.2c-7.9,0-15.8,0-23.7,0c-0.8,0-1.6,0.2-2.4,0.4
	c-0.5,0.1-0.9,0.5-1.3,0.8c-0.3,0.3-0.4,0.7-0.2,1.1C63.9,7,64.1,8.2,64,9.5c-0.1,1.3-0.3,2.6-1,3.7c0.3,0.4,0.7,0.7,1.1,0.9
	c0.9,0.5,2,0.7,3,0.7c1.3,0,2.7,0,4,0c0.3,0,0.5,0,0.8,0v1c0,8.1,0,16.3,0,24.4c0,0.5,0,1,0.1,1.6c0.3,2.3,2.1,4.2,4.4,4.5
	c1.2,0.2,2.5,0.2,3.7,0.1c2.8-0.2,5-2.4,5.1-5.3c0-1,0-2,0-3c0-7.5,0-15,0-22.5c0-0.3,0-0.5,0-0.9H86c1.4,0,2.7,0,4.1,0
	c1.6,0,3-0.4,4.3-1.3C95.1,13.1,95.8,12.4,96.2,11.6z M34.7,17c-0.3-5.3-2.7-9.7-6.9-13C23.5,0.8,18.7-0.2,13.5,1
	C9.9,1.8,6.8,3.7,4.4,6.5C1.6,9.7,0.1,13.4,0,17.6C0,25.4,0,33.2,0,41.1c0,1.6,0.6,2.9,1.8,4c1.9,1.7,4.1,1.7,6.4,1.1
	c2.6-0.7,3.8-3.2,3.8-5.2c0-7.6,0-15.2,0-22.8c0-0.7,0.1-1.4,0.3-2c1.3-4.2,6.7-5.5,9.8-2.3c1.6,1.6,2.1,4.1,1.3,6.2
	c-0.9,2.2-3.1,3.7-5.3,3.6c-0.7,0-1.5,0-2.3-0.1c1.2,4.2,2.3,8.3,3.5,12.4c0.1,0,0.2,0.1,0.2,0.1c0.1,0,0.2,0,0.3,0
	c2.6-0.3,5-1.2,7.1-2.6C32.5,29.3,35.2,23.9,34.7,17z M126.2,11.1c-2.1-4.7-5.5-8-10.4-9.7c-4.5-1.6-9-1.2-13.3,0.9
	c-1.6,0.8-3.1,1.9-4.4,3.2c0.1,0.2,0.2,0.4,0.2,0.6c1.6,4.1-0.5,8.5-4.7,10c-0.8,0.3-0.8,0.3-0.8,1.2c0,0.1,0,0.3,0,0.4
	c0,7.8,0,15.6,0,23.3c0,2.6,1.9,4.8,4.5,5.2c0.7,0.1,1.5,0.1,2.3,0.1c1.9-0.1,3.4-1,4.4-2.6c0.6-0.9,0.8-2,0.8-3.1
	c0-7.7,0-15.3,0-23c0-3.2,3-6.4,7.1-5.6c3.1,0.6,5,3.4,4.6,6.5c-0.4,2.8-2.9,4.9-5.5,4.9c-0.8,0-1.5,0-2.4,0
	c1.2,4.2,2.3,8.3,3.5,12.5c0.4,0,0.7-0.1,1-0.1c7.8-1.4,13.6-7.7,14.4-15.8C127.9,17,127.5,14,126.2,11.1z M62.3,34.4
	c-0.1,0-0.1,0-0.2,0c-1.7,0.3-3.4,0.7-5.1,1c-1.8,0.3-3.7,0.4-5.5,0.1c-1-0.2-2-0.5-2.8-1.2c-1.4-1.3-1.1-3.2,0.7-3.8
	c1.2-0.4,2.4-0.3,3.6,0c2.3,0.6,4.3,0.1,6.1-1.3c0.9-0.7,1.6-1.7,1.7-2.9c0.2-1.3-0.1-2.5-0.7-3.6c-1.2-2.1-3.1-3-5.4-3.1
	c-1.2-0.1-2.3,0-3.5,0c-0.6,0-1.1-0.1-1.7-0.3c-1.1-0.3-1.6-1.1-1.6-2.2c0-1,0.5-1.6,1.6-2c0.2-0.1,0.4-0.1,0.6-0.1
	c0.8-0.1,1.6-0.1,2.3-0.1c1.3,0,2.7,0.1,4,0c1.6-0.1,3-0.7,3.9-2.2c0.4-0.7,0.7-1.4,0.9-2.1c0.4-1.5,0.3-3-0.8-4.3
	c-0.8-0.9-1.7-1.4-2.8-1.8c-2.4-0.8-4.9-1.1-7.5-0.8c-3.1,0.3-5.9,1.3-8.6,2.8c-1.8,1.1-3.5,2.3-5.1,3.8c-0.3,0.3-0.5,0.5-0.3,0.9
	c0.7,2.6,1,5.2,1,7.9c0,2.5-0.5,4.9-1.5,7.2c-0.8,1.9-1.9,3.7-3.2,5.3c-0.4,0.5-0.4,0.9-0.1,1.5c1,2,2.1,3.9,3.5,5.7
	c2.2,2.7,4.7,5,7.9,6.6c3.4,1.6,7,2.4,10.8,2.4c1.1-0.1,2.3-0.1,3.4-0.2c0.9-0.1,1.9-0.3,2.8-0.5c0.9-0.2,1.3-0.8,1.4-1.7
	c0.2-2.4,0.5-4.9,0.8-7.3c0.1-0.8,0.2-1.7,0.3-2.5C63.3,34.5,63.1,34.3,62.3,34.4z M197.8,6.9c0-0.1,0-0.2,0-0.3V6.2
	c0-0.2-0.1-0.4-0.2-0.7c-0.2-0.2-0.4-0.4-0.7-0.4c0.3,0,0.5-0.1,0.6-0.2c0.3-0.2,0.4-0.5,0.4-0.9c0-0.5-0.2-0.9-0.7-1.1
	c-0.3-0.1-0.6-0.2-1.2-0.2h-1.5v4.3h0.8V5.4h0.6c0.4,0,0.7,0,0.9,0.1c0.3,0.2,0.4,0.5,0.4,1v0.3l0,0.1c0,0,0,0,0,0c0,0,0,0,0,0h0.7
	l0-0.1C197.8,7,197.8,7,197.8,6.9z M196.6,4.8c-0.2,0.1-0.4,0.1-0.7,0.1h-0.7V3.3h0.7c0.4,0,0.7,0.1,0.9,0.2
	c0.2,0.1,0.3,0.3,0.3,0.6C197.1,4.5,196.9,4.7,196.6,4.8z M198.8,2.2C198.1,1.4,197.1,1,196,1c-1.1,0-2,0.4-2.8,1.2
	c-0.8,0.8-1.2,1.7-1.2,2.8c0,1.1,0.4,2,1.1,2.8c0.8,0.8,1.7,1.2,2.8,1.2c1.1,0,2-0.4,2.8-1.2C199.6,7,200,6.1,200,5
	C200,3.9,199.6,3,198.8,2.2z M198.5,7.4c-0.7,0.7-1.5,1-2.4,1c-0.9,0-1.7-0.3-2.4-1c-0.7-0.7-1-1.5-1-2.4c0-0.9,0.3-1.7,1-2.4
	c0.7-0.7,1.5-1,2.4-1c0.9,0,1.7,0.3,2.4,1c0.7,0.7,1,1.5,1,2.4C199.4,5.9,199.1,6.7,198.5,7.4z M183.8,3.5c-7.9-0.1-15.8,0-23.8,0
	c-0.9,0-1.9,0.2-2.7,0.6c-0.4,0.2-0.7,0.5-1.1,0.8c-0.3,0.3-0.3,0.6-0.1,1c0.2,0.4,0.4,0.9,0.5,1.4c0.4,2.1,0.2,4.1-0.8,6
	c0.3,0.5,0.8,0.8,1.3,1c0.9,0.4,1.8,0.6,2.8,0.6c1.3,0,2.6,0,3.9,0c0.3,0,0.5,0,0.8,0c0,0.4,0.1,0.8,0.1,1.2c0,8.1,0,16.2,0,24.3
	c0,0.3,0,0.6,0,0.9c0.1,2.6,1.9,4.8,4.5,5.2c1.1,0.2,2.2,0.1,3.3,0.1c0.5,0,1-0.1,1.4-0.2c2.4-0.6,4-2.8,4.1-5.3c0-8.3,0-16.7,0-25
	c0-0.3,0-0.7,0-1.1c0.4,0,0.7,0,0.9,0c1.4,0,2.8,0,4.1,0c1.5,0,3-0.5,4.3-1.3c2.2-1.5,2.9-4.7,1.5-7.2
	C187.8,4.3,185.9,3.5,183.8,3.5z M155.5,34.4c-0.1,0-0.3,0.1-0.4,0.1c-1.7,0.3-3.4,0.7-5.2,1c-1.8,0.3-3.6,0.3-5.4,0.1
	c-0.9-0.1-1.8-0.4-2.6-0.9c-0.8-0.6-1.2-1.3-1.1-2.3c0.1-1,0.8-1.5,1.7-1.8c0.2-0.1,0.5-0.1,0.7-0.1c0.9,0,1.9,0,2.8,0.2
	c2.2,0.6,4.2,0.1,6-1.4c0.7-0.6,1.3-1.3,1.5-2.3c0.5-2,0.1-3.8-1.4-5.4c-1.3-1.4-2.9-2-4.7-2c-1.1,0-2.3,0-3.4,0
	c-0.7,0-1.4-0.1-2.1-0.4c-1-0.4-1.2-1.3-1.2-2.2c0-0.9,0.5-1.4,1.4-1.7c0.3-0.1,0.5-0.2,0.8-0.2c0.7-0.1,1.5-0.1,2.2-0.1
	c1.4,0,2.9,0.1,4.3,0c1.9-0.1,3.4-1.1,4.2-2.9c0.2-0.6,0.5-1.1,0.6-1.7c0.4-1.7,0-3.2-1.3-4.4c-0.6-0.6-1.4-1-2.2-1.3
	c-3.3-1.2-6.6-1.3-10-0.6c-3.3,0.7-6.3,2.2-9,4.2c-1,0.7-2,1.5-2.8,2.5c0,0.1,0,0.2,0,0.2c0.7,2.7,1,5.5,1,8.3
	c0,2.7-0.7,5.3-1.8,7.8c-0.8,1.7-1.8,3.2-3,4.7c-0.3,0.4-0.3,0.7-0.1,1.1c1.3,2.7,2.9,5.2,5,7.5c2.3,2.6,5.1,4.5,8.4,5.8
	c4.7,1.7,9.5,2,14.3,1.1c0.5-0.1,0.9-0.2,1.4-0.4c0.6-0.2,0.9-0.7,0.9-1.3c0.1-1,0.2-2.1,0.3-3.1c0.2-1.9,0.4-3.7,0.6-5.6
	c0.1-0.5,0.1-1,0.1-1.6C156.2,34.5,156,34.3,155.5,34.4z"/>
</svg>
